#!OML:ASF I:\Actors\actors\Patient Classification 1\Patient 1\Session 1\Subject1.ASF
:FULLY-SPECIFIED
:DEGREES
1084
root 0.622045 17.5918 9.35974 22.3628 -9.35028 -9.41581
lowerback 7.64304 -0.326146 8.45204
upperback -8.53275 1.01456 2.43034
thorax -13.6713 -0.210846 -2.23029
lowerneck -9.85741 -5.19749 -2.19264
upperneck 12.3063 -8.01641 8.98003
head 5.80487 -3.3889 2.52752
rclavicle 1.62506e-014 -3.20043e-014
rhumerus 47.8104 27.2918 -62.5626
rradius 116.8
rwrist 37.3325
rhand -25.1058 -35.909
rfingers 7.12502
rthumb 1.40941 294.116
lclavicle 1.62506e-014 -3.20043e-014
lhumerus 24.7336 -40.7475 85.0074
lradius 112.379
lwrist -22.4818
lhand -56.2011 -56.9823
lfingers 7.12502
lthumb -28.5284 -29.1384
rfemur -21.4847 27.0108 18.2471
rtibia 5.80551
rfoot -8.56306 -20.3429
rtoes -1.4572
lfemur -8.53186 -63.2542 0.832458
ltibia -3.33008
lfoot -78.7074 59.6465
ltoes 37.0471
1085
root 0.60058 17.5893 9.36045 22.9449 -9.31148 -9.41302
lowerback 7.60441 -0.319444 8.52576
upperback -8.53137 1.03404 2.47074
thorax -13.6451 -0.205421 -2.22993
lowerneck -9.86312 -5.14002 -1.90239
upperneck 12.0011 -7.91202 8.70383
head 5.68136 -3.35332 2.40475
rclavicle -2.40281e-014 2.70347e-014
rhumerus 48.1656 27.0602 -62.3988
rradius 116.767
rwrist 37.3406
rhand -25.1036 -35.7255
rfingers 7.12502
rthumb 1.41148 294.299
lclavicle -2.40281e-014 2.70347e-014
lhumerus 25.2105 -40.6472 84.7396
lradius 112.356
lwrist -22.45
lhand -56.123 -57.308
lfingers 7.12502
lthumb -28.4537 -29.4516
rfemur -22.1443 26.9724 17.9908
rtibia 5.68221
rfoot -8.39078 -20.3281
rtoes -1.48374
lfemur -10.121 -63.9481 2.44028
ltibia -3.15737
lfoot -80.6844 59.2558
ltoes 37.7209
1086
root 0.572907 17.595 9.36208 23.2803 -9.15329 -9.40619
lowerback 7.49577 -0.33543 8.50589
upperback -8.29101 0.991153 2.56871
thorax -13.2963 -0.199153 -2.10794
lowerneck -9.82171 -5.08711 -1.84912
upperneck 11.4164 -7.7879 8.66276
head 5.48132 -3.31254 2.39827
rclavicle 3.30728e-014 -3.97569e-015
rhumerus 48.717 26.3702 -62.3494
rradius 116.445
rwrist 37.4747
rhand -25.39 -33.2818
rfingers 7.12502
rthumb 1.13494 296.741
lclavicle 3.30728e-014 -3.97569e-015
lhumerus 26.0443 -40.5525 84.3035
lradius 112.3
lwrist -22.4281
lhand -56.0577 -57.449
lfingers 7.12502
lthumb -28.3914 -29.5822
rfemur -22.4509 27.34 17.8177
rtibia 5.46698
rfoot -8.26816 -20.816
rtoes -1.35825
lfemur -11.2068 -64.5431 3.69023
ltibia -3.12147
lfoot -82.0853 58.9929
ltoes 38.2142
1087
root 0.542985 17.6043 9.36186 23.5451 -8.89586 -9.48337
lowerback 8.48129 -0.465831 8.7332
upperback -8.58058 0.986278 2.56339
thorax -14.2717 -0.266049 -2.2308
lowerneck -9.70808 -5.07994 -1.80178
upperneck 11.4639 -7.79625 8.71166
head 5.47758 -3.31314 2.40758
rclavicle 3.62782e-014 7.95139e-015
rhumerus 48.5415 26.624 -62.2089
rradius 116.621
rwrist 37.6745
rhand -25.4159 -35.4523
rfingers 7.12502
rthumb 1.10984 294.571
lclavicle 3.62782e-014 7.95139e-015
lhumerus 25.6926 -40.6642 84.3497
lradius 112.319
lwrist -22.4085
lhand -56.0592 -57.5921
lfingers 7.12502
lthumb -28.3928 -29.7255
rfemur -22.647 27.9524 17.7444
rtibia 5.20064
rfoot -8.17622 -21.6068
rtoes -0.984848
lfemur -12.1229 -64.7903 4.93576
ltibia -3.23096
lfoot -82.6137 58.9029
ltoes 38.3658
1088
root 0.519509 17.6086 9.36457 23.8266 -8.74064 -9.55172
lowerback 8.53712 -0.496979 8.83304
upperback -8.39439 0.961488 2.63766
thorax -14.0883 -0.271383 -2.20292
lowerneck -9.85617 -5.10645 -1.8123
upperneck 11.2294 -7.81269 8.73352
head 5.43227 -3.32317 2.4125
rclavicle 2.18663e-015 -1.08338e-014
rhumerus 48.8182 26.2661 -62.0539
rradius 116.588
rwrist 37.6973
rhand -25.4058 -34.7012
rfingers 7.12502
rthumb 1.11964 295.322
lclavicle 2.18663e-015 -1.08338e-014
lhumerus 26.3629 -40.6315 83.8692
lradius 112.287
lwrist -22.3704
lhand -56.1253 -57.5755
lfingers 7.12502
lthumb -28.456 -29.7195
rfemur -22.8453 28.3708 17.6623
rtibia 4.91282
rfoot -8.04988 -22.1191
rtoes -0.659183
lfemur -13.0715 -65.6519 6.17609
ltibia -3.19321
lfoot -84.4642 58.6147
ltoes 38.8416
1089
root 0.500688 17.6093 9.36877 24.1404 -8.7395 -9.51688
lowerback 8.70288 -0.517561 8.84781
upperback -8.32313 0.954608 2.66713
thorax -14.1093 -0.27309 -2.1784
lowerneck -9.98966 -5.06962 -1.5605
upperneck 11.1172 -7.76165 8.52654
head 5.39925 -3.30117 2.30951
rclavicle 2.15681e-014 -3.50855e-014
rhumerus 48.8287 26.0475 -62.0906
rradius 116.465
rwrist 37.6393
rhand -25.4451 -33.4873
rfingers 7.12502
rthumb 1.08169 296.536
lclavicle 2.15681e-014 -3.50855e-014
lhumerus 26.7569 -40.5391 83.5904
lradius 112.209
lwrist -22.4187
lhand -56.1301 -57.4921
lfingers 7.12502
lthumb -28.4606 -29.6368
rfemur -23.1285 28.5241 17.451
rtibia 4.68353
rfoot -7.87176 -22.2782
rtoes -0.75725
lfemur -13.3601 -65.4975 6.52143
ltibia -3.32981
lfoot -84.6291 57.6836
ltoes 39.8675
1090
root 0.483641 17.6094 9.37343 24.4733 -8.73338 -9.46243
lowerback 9.03985 -0.55522 8.98201
upperback -8.37635 0.963062 2.6079
thorax -14.3882 -0.298258 -2.31853
lowerneck -9.92406 -4.98505 -1.40913
upperneck 10.9792 -7.65213 8.49395
head 5.33266 -3.24992 2.28671
rclavicle 5.889e-015 2.27608e-014
rhumerus 48.7682 25.9495 -62.1811
rradius 116.369
rwrist 37.6196
rhand -25.5442 -33.142
rfingers 7.12502
rthumb 0.985973 296.881
lclavicle 5.889e-015 2.27608e-014
lhumerus 26.846 -40.4948 83.4318
lradius 112.153
lwrist -22.4833
lhand -56.1588 -57.4606
lfingers 7.12502
lthumb -28.4879 -29.6099
rfemur -23.4207 28.6132 17.2164
rtibia 4.43636
rfoot -7.646 -22.3914
rtoes -1.0489
lfemur -13.8153 -65.3256 6.9956
ltibia -3.45752
lfoot -84.71 56.9797
ltoes 40.6566
1091
root 0.468638 17.608 9.37829 24.7981 -8.70906 -9.3683
lowerback 9.11744 -0.541379 9.03766
upperback -8.30225 0.989649 2.56276
thorax -14.3446 -0.290931 -2.4075
lowerneck -9.84558 -5.02376 -1.44318
upperneck 10.6347 -7.68914 8.64743
head 5.22231 -3.27262 2.34068
rclavicle 1.14798e-014 -2.3059e-014
rhumerus 48.975 25.7744 -61.8971
rradius 116.406
rwrist 37.6814
rhand -25.5567 -33.9159
rfingers 7.12502
rthumb 0.973914 296.107
lclavicle 1.14798e-014 -2.3059e-014
lhumerus 27.2248 -40.5009 83.1921
lradius 112.134
lwrist -22.4921
lhand -56.2625 -57.2674
lfingers 7.12502
lthumb -28.587 -29.4334
rfemur -23.7091 28.8699 16.8794
rtibia 4.17203
rfoot -7.51892 -22.7069
rtoes -0.934506
lfemur -14.434 -65.1712 7.54614
ltibia -3.51565
lfoot -84.6128 56.6965
ltoes 40.916
1092
root 0.45208 17.6079 9.37994 25.1651 -8.67098 -9.41103
lowerback 9.25311 -0.531836 9.17083
upperback -8.24968 1.03943 2.58061
thorax -14.364 -0.279225 -2.47314
lowerneck -9.94733 -5.02871 -1.41989
upperneck 10.4667 -7.6898 8.68385
head 5.18839 -3.27223 2.34688
rclavicle 1.14301e-015 -2.8625e-014
rhumerus 49.2015 25.6706 -61.6171
rradius 116.433
rwrist 37.7358
rhand -25.516 -34.6671
rfingers 7.12502
rthumb 1.01321 295.356
lclavicle 1.14301e-015 -2.8625e-014
lhumerus 27.6065 -40.501 82.942
lradius 112.126
lwrist -22.4225
lhand -56.3972 -57.0398
lfingers 7.12502
lthumb -28.7158 -29.2275
rfemur -24.0819 29.2745 16.645
rtibia 3.97084
rfoot -7.49685 -23.1312
rtoes -0.459865
lfemur -15.1354 -64.9393 8.3452
ltibia -3.59451
lfoot -84.4919 56.5109
ltoes 41.0361
1093
root 0.434409 17.6074 9.38163 25.5634 -8.62612 -9.56289
lowerback 9.06409 -0.503025 9.22721
upperback -8.01435 1.0664 2.7562
thorax -13.9616 -0.238907 -2.31996
lowerneck -10.1156 -5.01105 -1.51933
upperneck 10.1129 -7.62147 8.69317
head 5.10771 -3.24875 2.36982
rclavicle -1.26849e-014 5.58585e-014
rhumerus 49.7441 25.3624 -61.3094
rradius 116.296
rwrist 37.8337
rhand -25.6238 -33.9699
rfingers 7.12502
rthumb 0.909097 296.052
lclavicle -1.26849e-014 5.58585e-014
lhumerus 28.3258 -40.3209 82.5981
lradius 112.095
lwrist -22.3951
lhand -56.5051 -56.9262
lfingers 7.12502
lthumb -28.8188 -29.1315
rfemur -24.4906 29.6147 16.5536
rtibia 3.80472
rfoot -7.4184 -23.4631
rtoes -0.23469
lfemur -15.6983 -64.6629 9.18451
ltibia -3.77068
lfoot -84.4825 56.1272
ltoes 41.3743
1094
root 0.42023 17.6043 9.38556 25.9086 -8.63353 -9.50944
lowerback 9.37556 -0.555695 9.299
upperback -8.07078 1.04799 2.73308
thorax -14.23 -0.268035 -2.37974
lowerneck -10.1688 -4.96638 -1.51397
upperneck 10.0532 -7.56682 8.76831
head 5.0984 -3.21766 2.39591
rclavicle -1.3008e-014 5.28767e-014
rhumerus 49.7563 25.2834 -61.4137
rradius 116.243
rwrist 37.9795
rhand -25.7359 -33.3774
rfingers 7.12502
rthumb 0.800854 296.644
lclavicle -1.3008e-014 5.28767e-014
lhumerus 28.3846 -40.2165 82.4765
lradius 112.124
lwrist -22.4043
lhand -56.4996 -56.6399
lfingers 7.12502
lthumb -28.8135 -28.8442
rfemur -24.8619 29.8108 16.2421
rtibia 3.62
rfoot -7.2822 -23.715
rtoes -0.304311
lfemur -16.035 -64.4792 9.56257
ltibia -3.9604
lfoot -84.5974 55.3468
ltoes 42.198
1095
root 0.410421 17.6021 9.3878 26.2495 -8.61588 -9.41363
lowerback 9.64277 -0.614092 9.35152
upperback -8.123 1.01164 2.69883
thorax -14.4677 -0.303276 -2.43744
lowerneck -10.2884 -4.90285 -1.22857
upperneck 10.1197 -7.51344 8.63646
head 5.12088 -3.18364 2.31059
rclavicle 3.71479e-014 -1.36167e-014
rhumerus 49.8024 25.2696 -61.4278
rradius 116.299
rwrist 37.9368
rhand -25.8225 -33.396
rfingers 7.12502
rthumb 0.717216 296.625
lclavicle 3.71479e-014 -1.36167e-014
lhumerus 28.4096 -40.1431 82.4244
lradius 112.183
lwrist -22.3533
lhand -56.4295 -56.6594
lfingers 7.12502
lthumb -28.7466 -28.8523
rfemur -25.2593 29.9703 15.8595
rtibia 3.46469
rfoot -7.2211 -23.9648
rtoes -0.0128728
lfemur -16.5493 -64.319 10.0257
ltibia -4.07611
lfoot -84.7219 54.5924
ltoes 43.0035
